# xmcd
#
# Track frame offsets:
#	150
#	38157
#	66930
#	88630
#	112647
#	144117
#	174107
#	183335
#	198355
#	211137
#	231977
#	263527
#	278415
#	306505
#	323550
#
# Disc length: 4573 seconds
#
# Revision: 2
# Processed by: cddbd v1.5.2PL0 Copyright (c) Steve Scherf et al.
# Submitted via: audiograbber 1.83.01
#
DISCID=bd11db0f
DTITLE=Abi Wallenstein - Blues On Air - Live In Concert with Joja Wendt
DYEAR=1997
DGENRE=Blues
TTITLE0=Decoration Blues
TTITLE1=Suzy Q.
TTITLE2=Palace Of The King
TTITLE3=Keep Your Hands Of Her
TTITLE4=Sugar Mamma
TTITLE5=Good Morning Blues
TTITLE6=Grinnin' In Your Face
TTITLE7=Silver City
TTITLE8=The Mojo Boogie
TTITLE9=I'd Rather Go Blind
TTITLE10=Shake Your Boogie
TTITLE11=Take Sick and Die
TTITLE12=Got My Mojo Working
TTITLE13=Everybody Needs Somebody
TTITLE14=Same Old Blues
EXTD=
EXTT0=
EXTT1=
EXTT2=
EXTT3=
EXTT4=
EXTT5=
EXTT6=
EXTT7=
EXTT8=
EXTT9=
EXTT10=
EXTT11=
EXTT12=
EXTT13=
EXTT14=
PLAYORDER=
